<svg id="visual" viewBox="0 0 960 540" width="960" height="540" xmlns="http://www.w3.org/2000/svg" xmlns:xlink="http://www.w3.org/1999/xlink" version="1.1"><path d="M0 98L22.8 95.3C45.7 92.7 91.3 87.3 137 82C182.7 76.7 228.3 71.3 274 70.5C319.7 69.7 365.3 73.3 411.2 80.5C457 87.7 503 98.3 548.8 101C594.7 103.7 640.3 98.3 686 93C731.7 87.7 777.3 82.3 823 77.8C868.7 73.3 914.3 69.7 937.2 67.8L960 66L960 0L937.2 0C914.3 0 868.7 0 823 0C777.3 0 731.7 0 686 0C640.3 0 594.7 0 548.8 0C503 0 457 0 411.2 0C365.3 0 319.7 0 274 0C228.3 0 182.7 0 137 0C91.3 0 45.7 0 22.8 0L0 0Z" fill="#004cbb"></path><path d="M0 228L22.8 225.3C45.7 222.7 91.3 217.3 137 210.2C182.7 203 228.3 194 274 192.2C319.7 190.3 365.3 195.7 411.2 199.2C457 202.7 503 204.3 548.8 205.2C594.7 206 640.3 206 686 202.5C731.7 199 777.3 192 823 185.7C868.7 179.3 914.3 173.7 937.2 170.8L960 168L960 64L937.2 65.8C914.3 67.7 868.7 71.3 823 75.8C777.3 80.3 731.7 85.7 686 91C640.3 96.3 594.7 101.7 548.8 99C503 96.3 457 85.7 411.2 78.5C365.3 71.3 319.7 67.7 274 68.5C228.3 69.3 182.7 74.7 137 80C91.3 85.3 45.7 90.7 22.8 93.3L0 96Z" fill="#4988ff"></path><path d="M0 390L22.8 390.8C45.7 391.7 91.3 393.3 137 379.8C182.7 366.3 228.3 337.7 274 332.3C319.7 327 365.3 345 411.2 357.5C457 370 503 377 548.8 383.3C594.7 389.7 640.3 395.3 686 390.8C731.7 386.3 777.3 371.7 823 357.2C868.7 342.7 914.3 328.3 937.2 321.2L960 314L960 166L937.2 168.8C914.3 171.7 868.7 177.3 823 183.7C777.3 190 731.7 197 686 200.5C640.3 204 594.7 204 548.8 203.2C503 202.3 457 200.7 411.2 197.2C365.3 193.7 319.7 188.3 274 190.2C228.3 192 182.7 201 137 208.2C91.3 215.3 45.7 220.7 22.8 223.3L0 226Z" fill="#4988ff"></path><path d="M0 541L22.8 541C45.7 541 91.3 541 137 541C182.7 541 228.3 541 274 541C319.7 541 365.3 541 411.2 541C457 541 503 541 548.8 541C594.7 541 640.3 541 686 541C731.7 541 777.3 541 823 541C868.7 541 914.3 541 937.2 541L960 541L960 312L937.2 319.2C914.3 326.3 868.7 340.7 823 355.2C777.3 369.7 731.7 384.3 686 388.8C640.3 393.3 594.7 387.7 548.8 381.3C503 375 457 368 411.2 355.5C365.3 343 319.7 325 274 330.3C228.3 335.7 182.7 364.3 137 377.8C91.3 391.3 45.7 389.7 22.8 388.8L0 388Z" fill="#004cbb"></path></svg>