<svg id="visual" viewBox="0 0 900 600" width="900" height="600" xmlns="http://www.w3.org/2000/svg" xmlns:xlink="http://www.w3.org/1999/xlink" version="1.1"><g stroke-width="1" stroke-linejoin="bevel"><path d="M436 279L511 313L481 218Z" fill="#608b93" stroke="#608b93"></path><path d="M481 218L361 215L436 279Z" fill="#41cce1" stroke="#41cce1"></path><path d="M511 313L634 273L481 218Z" fill="#61797e" stroke="#61797e"></path><path d="M634 273L624 185L481 218Z" fill="#35d6ed" stroke="#35d6ed"></path><path d="M481 218L328 136L361 215Z" fill="#5d9da9" stroke="#5d9da9"></path><path d="M380 418L468 437L436 279Z" fill="#41cce1" stroke="#41cce1"></path><path d="M436 279L468 437L511 313Z" fill="#618289" stroke="#618289"></path><path d="M511 313L636 362L634 273Z" fill="#41cce1" stroke="#41cce1"></path><path d="M468 437L636 362L511 313Z" fill="#41cce1" stroke="#41cce1"></path><path d="M297 285L380 418L436 279Z" fill="#61797e" stroke="#61797e"></path><path d="M624 185L515 82L481 218Z" fill="#5f949e" stroke="#5f949e"></path><path d="M361 215L297 285L436 279Z" fill="#5aa6b4" stroke="#5aa6b4"></path><path d="M636 362L667 327L634 273Z" fill="#4ac3d6" stroke="#4ac3d6"></path><path d="M634 273L677 230L624 185Z" fill="#61797e" stroke="#61797e"></path><path d="M667 327L677 230L634 273Z" fill="#35d6ed" stroke="#35d6ed"></path><path d="M624 185L565 72L515 82Z" fill="#41cce1" stroke="#41cce1"></path><path d="M371 60L328 136L481 218Z" fill="#5aa6b4" stroke="#5aa6b4"></path><path d="M361 215L276 227L297 285Z" fill="#61797e" stroke="#61797e"></path><path d="M625 0L565 72L731 75Z" fill="#56afbf" stroke="#56afbf"></path><path d="M328 136L276 227L361 215Z" fill="#618289" stroke="#618289"></path><path d="M274 367L385 462L380 418Z" fill="#61797e" stroke="#61797e"></path><path d="M380 418L385 462L468 437Z" fill="#5aa6b4" stroke="#5aa6b4"></path><path d="M636 362L690 382L667 327Z" fill="#41cce1" stroke="#41cce1"></path><path d="M810 277L795 182L677 230Z" fill="#608b93" stroke="#608b93"></path><path d="M690 479L690 382L636 362Z" fill="#4ac3d6" stroke="#4ac3d6"></path><path d="M639 533L636 362L468 437Z" fill="#5aa6b4" stroke="#5aa6b4"></path><path d="M204 372L274 367L297 285Z" fill="#41cce1" stroke="#41cce1"></path><path d="M297 285L274 367L380 418Z" fill="#51b9cb" stroke="#51b9cb"></path><path d="M515 82L371 60L481 218Z" fill="#41cce1" stroke="#41cce1"></path><path d="M328 136L225 103L276 227Z" fill="#51b9cb" stroke="#51b9cb"></path><path d="M509 0L371 60L515 82Z" fill="#5aa6b4" stroke="#5aa6b4"></path><path d="M385 462L479 510L468 437Z" fill="#5aa6b4" stroke="#5aa6b4"></path><path d="M565 72L509 0L515 82Z" fill="#41cce1" stroke="#41cce1"></path><path d="M509 0L373 0L371 60Z" fill="#618289" stroke="#618289"></path><path d="M319 0L225 103L328 136Z" fill="#41cce1" stroke="#41cce1"></path><path d="M639 533L690 479L636 362Z" fill="#608b93" stroke="#608b93"></path><path d="M162 335L204 372L297 285Z" fill="#61797e" stroke="#61797e"></path><path d="M274 367L307 537L385 462Z" fill="#51b9cb" stroke="#51b9cb"></path><path d="M385 462L369 600L479 510Z" fill="#41cce1" stroke="#41cce1"></path><path d="M162 335L297 285L276 227Z" fill="#5d9da9" stroke="#5d9da9"></path><path d="M731 75L565 72L624 185Z" fill="#56afbf" stroke="#56afbf"></path><path d="M565 72L625 0L509 0Z" fill="#61797e" stroke="#61797e"></path><path d="M479 510L639 533L468 437Z" fill="#56afbf" stroke="#56afbf"></path><path d="M319 0L328 136L371 60Z" fill="#5d9da9" stroke="#5d9da9"></path><path d="M677 230L731 75L624 185Z" fill="#35d6ed" stroke="#35d6ed"></path><path d="M795 182L731 75L677 230Z" fill="#61797e" stroke="#61797e"></path><path d="M677 230L667 327L810 277Z" fill="#41cce1" stroke="#41cce1"></path><path d="M373 0L319 0L371 60Z" fill="#5d9da9" stroke="#5d9da9"></path><path d="M810 277L667 327L690 382Z" fill="#56afbf" stroke="#56afbf"></path><path d="M225 103L172 196L276 227Z" fill="#5aa6b4" stroke="#5aa6b4"></path><path d="M211 513L307 537L274 367Z" fill="#41cce1" stroke="#41cce1"></path><path d="M479 510L581 600L639 533Z" fill="#618289" stroke="#618289"></path><path d="M809 377L810 277L690 382Z" fill="#5d9da9" stroke="#5d9da9"></path><path d="M172 196L162 335L276 227Z" fill="#5aa6b4" stroke="#5aa6b4"></path><path d="M204 372L211 513L274 367Z" fill="#608b93" stroke="#608b93"></path><path d="M369 600L487 600L479 510Z" fill="#608b93" stroke="#608b93"></path><path d="M834 478L809 377L690 479Z" fill="#608b93" stroke="#608b93"></path><path d="M690 479L809 377L690 382Z" fill="#56afbf" stroke="#56afbf"></path><path d="M487 600L581 600L479 510Z" fill="#5d9da9" stroke="#5d9da9"></path><path d="M639 533L668 600L690 479Z" fill="#618289" stroke="#618289"></path><path d="M796 0L709 0L731 75Z" fill="#51b9cb" stroke="#51b9cb"></path><path d="M731 75L709 0L625 0Z" fill="#56afbf" stroke="#56afbf"></path><path d="M307 537L369 600L385 462Z" fill="#4ac3d6" stroke="#4ac3d6"></path><path d="M795 182L797 97L731 75Z" fill="#608b93" stroke="#608b93"></path><path d="M900 192L797 97L795 182Z" fill="#5f949e" stroke="#5f949e"></path><path d="M172 196L123 300L162 335Z" fill="#5f949e" stroke="#5f949e"></path><path d="M108 414L211 513L204 372Z" fill="#56afbf" stroke="#56afbf"></path><path d="M108 414L204 372L162 335Z" fill="#5d9da9" stroke="#5d9da9"></path><path d="M307 537L317 600L369 600Z" fill="#61797e" stroke="#61797e"></path><path d="M234 600L317 600L307 537Z" fill="#61797e" stroke="#61797e"></path><path d="M581 600L668 600L639 533Z" fill="#56afbf" stroke="#56afbf"></path><path d="M319 0L189 0L225 103Z" fill="#608b93" stroke="#608b93"></path><path d="M64 86L71 202L172 196Z" fill="#61797e" stroke="#61797e"></path><path d="M172 196L71 202L123 300Z" fill="#608b93" stroke="#608b93"></path><path d="M123 300L108 414L162 335Z" fill="#618289" stroke="#618289"></path><path d="M813 600L834 478L690 479Z" fill="#5f949e" stroke="#5f949e"></path><path d="M809 377L900 320L810 277Z" fill="#61797e" stroke="#61797e"></path><path d="M900 85L796 0L797 97Z" fill="#618289" stroke="#618289"></path><path d="M900 192L795 182L810 277Z" fill="#5aa6b4" stroke="#5aa6b4"></path><path d="M797 97L796 0L731 75Z" fill="#41cce1" stroke="#41cce1"></path><path d="M118 512L234 600L211 513Z" fill="#5f949e" stroke="#5f949e"></path><path d="M211 513L234 600L307 537Z" fill="#41cce1" stroke="#41cce1"></path><path d="M900 396L900 320L809 377Z" fill="#5f949e" stroke="#5f949e"></path><path d="M64 86L172 196L225 103Z" fill="#56afbf" stroke="#56afbf"></path><path d="M123 300L0 388L108 414Z" fill="#5aa6b4" stroke="#5aa6b4"></path><path d="M900 320L900 192L810 277Z" fill="#608b93" stroke="#608b93"></path><path d="M834 478L900 396L809 377Z" fill="#4ac3d6" stroke="#4ac3d6"></path><path d="M0 539L118 512L108 414Z" fill="#5f949e" stroke="#5f949e"></path><path d="M108 414L118 512L211 513Z" fill="#5d9da9" stroke="#5d9da9"></path><path d="M189 0L124 0L225 103Z" fill="#5d9da9" stroke="#5d9da9"></path><path d="M900 192L900 85L797 97Z" fill="#5d9da9" stroke="#5d9da9"></path><path d="M124 0L64 86L225 103Z" fill="#608b93" stroke="#608b93"></path><path d="M668 600L813 600L690 479Z" fill="#608b93" stroke="#608b93"></path><path d="M834 478L900 517L900 396Z" fill="#618289" stroke="#618289"></path><path d="M813 600L900 517L834 478Z" fill="#608b93" stroke="#608b93"></path><path d="M71 202L0 288L123 300Z" fill="#608b93" stroke="#608b93"></path><path d="M0 223L0 288L71 202Z" fill="#5f949e" stroke="#5f949e"></path><path d="M0 135L0 223L71 202Z" fill="#5f949e" stroke="#5f949e"></path><path d="M900 85L900 0L796 0Z" fill="#4ac3d6" stroke="#4ac3d6"></path><path d="M0 288L0 388L123 300Z" fill="#35d6ed" stroke="#35d6ed"></path><path d="M0 0L0 135L64 86Z" fill="#51b9cb" stroke="#51b9cb"></path><path d="M64 86L0 135L71 202Z" fill="#5d9da9" stroke="#5d9da9"></path><path d="M813 600L900 600L900 517Z" fill="#5d9da9" stroke="#5d9da9"></path><path d="M0 539L65 600L118 512Z" fill="#61797e" stroke="#61797e"></path><path d="M118 512L65 600L234 600Z" fill="#51b9cb" stroke="#51b9cb"></path><path d="M124 0L0 0L64 86Z" fill="#41cce1" stroke="#41cce1"></path><path d="M0 388L0 539L108 414Z" fill="#5aa6b4" stroke="#5aa6b4"></path><path d="M0 539L0 600L65 600Z" fill="#35d6ed" stroke="#35d6ed"></path></g></svg>